<svg width="200" height="200" viewBox="0 0 200 200" fill="none" xmlns="http://www.w3.org/2000/svg">
<rect width="200" height="200" fill="white"/>
<g filter="url(#filter0_d_116_2)">
<mask id="path-1-outside-1_116_2" maskUnits="userSpaceOnUse" x="9" y="9" width="181" height="182" fill="black">
<rect fill="white" x="9" y="9" width="181" height="182"/>
<path d="M10 20C10 14.4772 14.4772 10 20 10H180C185.523 10 190 14.4772 190 20V180C190 185.523 185.523 190 180 190H20C14.4772 190 10 185.523 10 180V20Z"/>
</mask>
<path d="M10 20C10 14.4772 14.4772 10 20 10H180C185.523 10 190 14.4772 190 20V180C190 185.523 185.523 190 180 190H20C14.4772 190 10 185.523 10 180V20Z" fill="#343434"/>
<path d="M9 20C9 13.9249 13.9249 9 20 9H179C185.075 9 190 13.9249 190 20C190 15.0294 185.523 11 180 11H20C15.0294 11 11 15.0294 11 20H9ZM190 180C190 186.075 185.075 191 179 191H20C13.9249 191 9 186.075 9 180H11C11 184.971 15.0294 189 20 189H180C185.523 189 190 184.971 190 180ZM20 191C13.9249 191 9 186.075 9 180V20C9 13.9249 13.9249 9 20 9V11C15.0294 11 11 15.0294 11 20V180C11 184.971 15.0294 189 20 189V191ZM190 10V190V10Z" fill="black" mask="url(#path-1-outside-1_116_2)"/>
</g>
<path d="M89.6364 88H81.1818C80.6818 85.5682 79.8068 83.4318 78.5568 81.5909C77.3295 79.75 75.8295 78.2045 74.0568 76.9545C72.3068 75.6818 70.3636 74.7273 68.2273 74.0909C66.0909 73.4545 63.8636 73.1364 61.5455 73.1364C57.3182 73.1364 53.4886 74.2045 50.0568 76.3409C46.6477 78.4773 43.9318 81.625 41.9091 85.7841C39.9091 89.9432 38.9091 95.0455 38.9091 101.091C38.9091 107.136 39.9091 112.239 41.9091 116.398C43.9318 120.557 46.6477 123.705 50.0568 125.841C53.4886 127.977 57.3182 129.045 61.5455 129.045C63.8636 129.045 66.0909 128.727 68.2273 128.091C70.3636 127.455 72.3068 126.511 74.0568 125.261C75.8295 123.989 77.3295 122.432 78.5568 120.591C79.8068 118.727 80.6818 116.591 81.1818 114.182H89.6364C89 117.75 87.8409 120.943 86.1591 123.761C84.4773 126.58 82.3864 128.977 79.8864 130.955C77.3864 132.909 74.5795 134.398 71.4659 135.42C68.375 136.443 65.0682 136.955 61.5455 136.955C55.5909 136.955 50.2955 135.5 45.6591 132.591C41.0227 129.682 37.375 125.545 34.7159 120.182C32.0568 114.818 30.7273 108.455 30.7273 101.091C30.7273 93.7273 32.0568 87.3636 34.7159 82C37.375 76.6364 41.0227 72.5 45.6591 69.5909C50.2955 66.6818 55.5909 65.2273 61.5455 65.2273C65.0682 65.2273 68.375 65.7386 71.4659 66.7614C74.5795 67.7841 77.3864 69.2841 79.8864 71.2614C82.3864 73.2159 84.4773 75.6023 86.1591 78.4205C87.8409 81.2159 89 84.4091 89.6364 88ZM103.298 136V66.1818H111.753V97.2727H148.98V66.1818H157.435V136H148.98V104.773H111.753V136H103.298Z" fill="white"/>
<defs>
<filter id="filter0_d_116_2" x="5" y="9" width="189" height="190" filterUnits="userSpaceOnUse" color-interpolation-filters="sRGB">
<feFlood flood-opacity="0" result="BackgroundImageFix"/>
<feColorMatrix in="SourceAlpha" type="matrix" values="0 0 0 0 0 0 0 0 0 0 0 0 0 0 0 0 0 0 127 0" result="hardAlpha"/>
<feOffset dy="4"/>
<feGaussianBlur stdDeviation="2"/>
<feComposite in2="hardAlpha" operator="out"/>
<feColorMatrix type="matrix" values="0 0 0 0 0 0 0 0 0 0 0 0 0 0 0 0 0 0 0.25 0"/>
<feBlend mode="normal" in2="BackgroundImageFix" result="effect1_dropShadow_116_2"/>
<feBlend mode="normal" in="SourceGraphic" in2="effect1_dropShadow_116_2" result="shape"/>
</filter>
</defs>
</svg>
